<?xml version="1.0" encoding="UTF-8" standalone="no"?>
<svg
   width="456"
   height="456"
   viewBox="0 0 456 456"
   version="1.1"
   xml:space="preserve"
   style="fill-rule:evenodd;clip-rule:evenodd;stroke-linejoin:round;stroke-miterlimit:2;"
   id="svg4"
   sodipodi:docname="appiconfg.svg"
   inkscape:version="1.3.1 (5ab75fa947, 2023-11-03)"
   xmlns:inkscape="http://www.inkscape.org/namespaces/inkscape"
   xmlns:sodipodi="http://sodipodi.sourceforge.net/DTD/sodipodi-0.dtd"
   xmlns="http://www.w3.org/2000/svg"
   xmlns:svg="http://www.w3.org/2000/svg"><defs
   id="defs4" /><sodipodi:namedview
   id="namedview4"
   pagecolor="#ffffff"
   bordercolor="#999999"
   borderopacity="1"
   inkscape:showpageshadow="0"
   inkscape:pageopacity="0"
   inkscape:pagecheckerboard="0"
   inkscape:deskcolor="#d1d1d1"
   inkscape:zoom="1.2886091"
   inkscape:cx="195.94771"
   inkscape:cy="159.47427"
   inkscape:window-width="1920"
   inkscape:window-height="1027"
   inkscape:window-x="-8"
   inkscape:window-y="-8"
   inkscape:window-maximized="1"
   inkscape:current-layer="svg4" />
    
    
    
    
<path
   style="font-size:289.346px;font-family:STZhongsong;-inkscape-font-specification:'STZhongsong, Normal';stroke:#000000;stroke-width:0"
   d="m 240.44188,195.01456 v -44.55929 h -36.16825 q -8.10169,0 -12.15254,2.31477 l -5.78692,-13.30992 q 6.07627,1.44673 14.4673,1.44673 h 39.64041 V 119.7846 q 0,-15.62469 -1.44673,-27.19853 24.59441,6.07627 30.38133,8.68038 5.78692,2.31477 5.78692,4.91888 0,2.60412 -8.96973,7.23365 v 27.48787 h 35.30022 L 311.621,126.15021 q 2.31476,-3.47215 4.62953,-3.47215 2.31477,0 16.49272,10.99514 14.46731,10.99515 14.46731,13.88861 0,2.89346 -8.68039,2.89346 h -72.3365 v 44.55929 h 56.71182 l 8.96973,-14.4673 q 2.31476,-3.7615 4.62953,-3.7615 2.60412,0 10.12711,5.78692 l 13.59927,10.99515 q 6.07626,5.20823 6.07626,8.39103 0,3.18281 -8.10169,3.18281 h -74.36192 q 31.82806,6.07626 31.82806,10.7058 0,2.60411 -8.68038,6.07627 v 20.54356 h 12.73122 l 9.83777,-15.04599 q 3.7615,-5.78692 6.36561,-5.78692 2.60411,0 5.20823,2.31477 2.60411,2.31477 9.54842,9.83776 7.23365,7.23365 9.25907,9.83777 2.31477,2.60411 2.31477,4.34019 0,3.1828 -6.36561,3.1828 h -48.89948 v 83.621 q 0,7.523 -3.7615,12.73122 -3.7615,5.20823 -15.62468,10.41646 -11.86319,5.49757 -15.62469,5.49757 -2.60411,0 -3.47215,-4.62953 -1.44673,-10.41646 -8.68038,-16.49272 -7.23365,-5.78692 -27.77722,-14.17796 l 1.44673,-5.49757 q 29.22395,6.36561 36.16825,6.36561 7.23366,0 9.54842,-1.73608 2.31477,-1.73607 2.31477,-7.52299 v -68.57501 h -92.59072 q -7.23365,0 -12.44188,1.44673 l -4.91888,-11.57384 q 6.07626,1.44673 14.4673,1.44673 h 95.48418 q 0,-31.82806 -0.57869,-37.32563 h -84.19969 q -7.81234,0 -12.15253,2.02542 l -5.20823,-13.59926 q 6.07627,1.44673 14.4673,1.44673 z M 123.83544,95.19018 q 23.72637,13.02057 36.16825,24.01572 12.73122,10.99515 12.73122,20.25422 0,9.25908 -4.62953,16.78207 -4.62954,7.23365 -11.57384,7.23365 -3.18281,0 -4.62954,-2.60411 -1.44673,-2.89346 -3.18281,-9.83777 -6.36561,-28.64525 -28.35591,-52.08228 z m 76.098,181.7093 q -28.9346,32.6961 -37.90433,44.26994 -8.68038,11.86318 -15.62468,26.04114 -2.02543,3.7615 -4.62954,3.7615 -2.02542,0 -5.78692,-4.91889 -3.47215,-4.91888 -11.86319,-21.4116 6.07627,-5.20823 8.96973,-11.2845 2.89346,-5.78692 2.89346,-17.07141 v -95.19484 h -28.9346 q -5.20823,0 -9.548419,1.44673 l -7.812342,-11.86318 q 4.918882,1.44673 12.152531,1.44673 h 32.6961 l 6.07627,-11.86319 q 2.02542,-4.05084 5.20822,-4.05084 3.18281,0 15.046,8.39103 11.86318,8.39104 11.86318,10.99515 0,3.18281 -13.02057,8.39103 v 95.48419 l 36.16825,-26.04114 z m 10.12711,-17.36076 q 18.80749,8.10169 27.77721,15.91403 9.25908,7.52299 9.25908,16.20337 0,8.39104 -4.62954,13.88861 -4.34019,5.20823 -9.25907,5.20823 -2.31477,0 -3.7615,-1.73608 -1.44673,-2.02542 -3.18281,-8.39103 -4.91888,-19.09684 -19.67552,-37.03629 z"
   id="text1"
   aria-label="诗" /></svg>
